<?xml version="1.0" encoding="iso-8859-1"?>
<!-- Generator: Adobe Illustrator 18.0.0, SVG Export Plug-In . SVG Version: 6.00 Build 0)  -->
<!DOCTYPE svg PUBLIC "-//W3C//DTD SVG 1.1//EN" "http://www.w3.org/Graphics/SVG/1.1/DTD/svg11.dtd">
<svg xmlns="http://www.w3.org/2000/svg" xmlns:xlink="http://www.w3.org/1999/xlink" version="1.1" id="Capa_1" x="0px" y="0px" viewBox="0 0 493.15 493.15" style="enable-background:new 0 0 493.15 493.15;" xml:space="preserve" width="512px" height="512px">
<path d="M447.817,467.123c-108.918-90.373-131.241-158.23-134.502-192.027c16.511-26.65,22.392-61.146,13.345-95.617  c-3.137-11.947-7.846-23.021-13.789-33.029c21.202-6.933,36.625-26.643,36.625-50.174c0-29.284-23.735-53.016-53.016-53.016  c-3.21,0-6.318,0.394-9.364,0.943C280.064,18.771,257.002,0,229.325,0c-27.683,0-50.774,18.796-57.801,44.252  c-3.199-0.608-6.471-0.994-9.837-0.994c-29.285,0-53.02,23.732-53.02,53.016c0,4.88,0.873,9.517,2.111,14  c-15.336,6.333-26.145,21.406-26.145,39.023c0,18.913,12.522,34.736,29.663,40.111c-23.87-0.276-56.189,6.962-73.872,43.711  c-0.655,1.357-0.509,2.955,0.378,4.174c0.896,1.212,2.384,1.834,3.869,1.626l44.657-6.503c1.656-0.236,3.298,0.564,4.127,2.02  c0.827,1.452,0.681,3.271-0.371,4.578l-23.651,29.238c-0.939,1.154-1.172,2.729-0.608,4.109c0.567,1.375,1.841,2.329,3.322,2.496  c11.201,1.245,34.332,1.351,59.618-11.438c11.955,21.602,29.533,38.543,49.93,48.875c-3.239,17.69-13.225,46.789-43.128,82.621  c-31.297,37.509-14.549,59.239,7.697,69.505l-3.588,8.006c-2.034,4.549-1.631,9.822,1.085,14.008  c2.707,4.185,7.351,6.714,12.333,6.714h282.335c6.197,0,11.729-3.894,13.833-9.728C454.36,477.6,452.581,471.079,447.817,467.123z   M170.636,182.374c0-8.444,6.849-15.293,15.298-15.293c8.444,0,15.296,6.849,15.296,15.293c0,8.452-6.852,15.3-15.296,15.3  C177.485,197.674,170.636,190.826,170.636,182.374z" fill="#ff6200"/>
<g>
</g>
<g>
</g>
<g>
</g>
<g>
</g>
<g>
</g>
<g>
</g>
<g>
</g>
<g>
</g>
<g>
</g>
<g>
</g>
<g>
</g>
<g>
</g>
<g>
</g>
<g>
</g>
<g>
</g>
</svg>
